PathFileType	4	(X/Y/Z)	C:/Users/opensim2020/Desktop/walking_exp_matlab/subject02_walking13_straight_02.trc	
DataRate	CameraRate	NumFrames	NumMarkers	Units	OrigDataRate	OrigDataStartFrame	OrigNumFrames	
100.00	100.00	5	41	mm	100.00	928	125	
Frame#	Time	LFHD			RFHD			LBHD			RBHD			C7			T10			CLAV			STRN			RBAK			LSHO			LUPA			LELB			LFRM			LWRA			LWRB			LFIN			RSHO			RUPA			RELB			RFRM			RWRA			RWRB			RFIN			LASI			RASI			LPSI			RPSI			LTHI			LKNE			LTIB			LANK			LHEE			LTOE			RTHI			RKNE			RTIB			RANK			RHEE			RTOE			*39			*40			
		X1	Y1	Z1	X2	Y2	Z2	X3	Y3	Z3	X4	Y4	Z4	X5	Y5	Z5	X6	Y6	Z6	X7	Y7	Z7	X8	Y8	Z8	X9	Y9	Z9	X10	Y10	Z10	X11	Y11	Z11	X12	Y12	Z12	X13	Y13	Z13	X14	Y14	Z14	X15	Y15	Z15	X16	Y16	Z16	X17	Y17	Z17	X18	Y18	Z18	X19	Y19	Z19	X20	Y20	Z20	X21	Y21	Z21	X22	Y22	Z22	X23	Y23	Z23	X24	Y24	Z24	X25	Y25	Z25	X26	Y26	Z26	X27	Y27	Z27	X28	Y28	Z28	X29	Y29	Z29	X30	Y30	Z30	X31	Y31	Z31	X32	Y32	Z32	X33	Y33	Z33	X34	Y34	Z34	X35	Y35	Z35	X36	Y36	Z36	X37	Y37	Z37	X38	Y38	Z38	X39	Y39	Z39	X40	Y40	Z40	X41	Y41	Z41	

63	0.620	1469.28247	146.17339	1729.61169	1328.94458	169.84737	1705.61133	1499.75403	282.15402	1673.18445	1362.31348	318.27579	1649.77588	1430.48120	361.19220	1527.04187	1424.61914	412.37692	1247.89258	1444.04395	224.60532	1456.46362	1431.27185	170.61137	1286.14514	1361.75867	418.31390	1350.41492	1610.44714	301.49100	1496.21118	1688.81287	355.86737	1304.30188	1702.67896	386.25549	1167.12268	1716.23328	400.66885	1034.39758	1681.03491	367.91626	900.06299	1717.72583	410.05728	910.26984	1714.52075	405.95718	842.50781	1248.12744	286.15576	1495.59924	1151.06030	288.63733	1311.44824	1120.67407	243.23889	1170.34619	1116.89539	167.60019	1072.47559	1154.87048	77.90263	978.53278	1116.04810	112.31888	955.11816	1123.73376	50.74216	916.96545	1551.44922	182.03001	988.82532	1299.08313	205.45996	965.24786	1488.08459	395.87991	1037.22620	1373.46387	408.59692	1035.90540	1636.91101	182.02144	692.24432	1613.59851	148.70082	496.49557	1615.93445	167.49075	302.66165	1604.05444	110.96236	82.47437	1547.11731	126.27955	48.24953	1646.30164	-38.70763	75.29969	1267.65552	321.09219	660.22070	1325.99670	357.24377	455.73032	1331.73877	430.46030	281.42868	1385.22327	479.81610	96.97124	1444.56519	520.48083	47.25571	1367.42126	334.55392	37.44518	1390.72144	251.25740	1804.59619	-3356.98950	2845.93140	1034.25928 
64	0.630	1470.14685	133.11253	1727.26367	1329.97400	156.76143	1703.46838	1500.68982	269.23279	1670.99634	1363.21948	305.23535	1647.76794	1431.48279	348.34525	1524.91064	1426.97925	399.55569	1245.77429	1444.74316	211.61853	1454.25635	1431.60974	157.77397	1283.96436	1363.13855	405.43576	1348.08337	1611.15125	288.03104	1493.82996	1688.51721	345.28882	1302.47827	1700.94312	377.93103	1165.91162	1714.62939	397.02127	1034.17761	1679.50293	369.73355	898.30853	1716.52271	411.25354	910.45172	1712.78821	410.51276	842.32446	1249.12622	273.92584	1493.56592	1150.94519	274.66501	1309.94556	1120.19922	227.28532	1169.33337	1117.19751	149.62996	1073.54993	1156.17163	57.34590	982.87219	1117.07837	90.73435	958.01221	1125.14014	27.98494	921.63696	1552.17810	167.86705	985.79022	1299.21167	194.37823	963.58600	1491.09778	382.48273	1034.33398	1377.10632	397.11420	1033.10486	1637.59961	169.32800	688.44330	1614.48242	133.92288	493.71802	1617.81445	143.49850	299.27942	1607.09937	75.99777	81.80633	1550.45898	90.27913	46.46171	1647.96887	-74.46172	81.88348	1268.64941	314.20807	659.43695	1326.86072	352.36548	455.22031	1332.59766	427.99374	282.02725	1385.91370	479.26477	97.80753	1445.32825	519.66962	48.12946	1367.18555	334.43765	37.35458	1391.62158	238.07433	1802.47961			 
65	0.640	1471.42139	120.25603	1725.01855	1330.97375	143.67589	1701.26282	1501.88831	256.49811	1668.83167	1364.04810	292.21454	1645.61853	1432.49695	335.46600	1522.59460	1429.37805	386.66681	1243.46790	1445.51697	198.56372	1452.00061	1431.97742	144.94514	1281.64099	1365.07141	392.95306	1345.69006	1612.36011	274.86246	1491.53662	1688.34912	334.63452	1300.58142	1699.39355	369.37341	1164.71606	1713.22363	392.83694	1034.11218	1677.92639	371.09265	896.69354	1715.72705	411.90771	911.12604	1711.35999	414.33075	842.69409	1250.27942	261.57050	1491.48254	1151.18188	261.08307	1308.23022	1119.65686	212.09511	1168.47156	1117.41174	131.79739	1074.58508	1157.19519	37.11085	986.88879	1118.14014	69.53142	960.78906	1126.79614	5.88172	926.57037	1553.06555	153.63376	982.72882	1299.36084	183.17140	961.86432	1493.87561	368.59995	1031.12085	1380.83850	385.40128	1030.16040	1638.97205	157.40921	685.11987	1615.47876	119.42963	490.83252	1619.73584	120.20422	296.39151	1609.72876	42.65442	81.93742	1552.89026	55.81968	45.49269	1648.53784	-108.56066	88.56464	1269.62097	307.03757	658.64899	1327.69702	347.31415	454.74539	1333.47742	425.51563	282.67227	1386.72791	478.54669	98.90348	1446.36133	519.05658	49.41056	1366.98291	334.31525	37.27008	1392.80188	225.06151	1800.27515	-3356.86108	2845.90601	1034.15649 
66	0.650	1472.26025	107.06978	1722.50232	1332.00061	130.57027	1699.00500	1502.53394	243.34674	1666.37500	1364.92065	279.14746	1643.39001	1433.59497	322.59280	1520.24109	1431.77209	373.60849	1241.07605	1446.28674	185.49294	1449.60547	1432.54968	131.78976	1279.48621	1366.84521	380.04993	1342.98242	1613.36975	261.38422	1489.10889	1688.64771	323.81018	1298.96118	1698.13098	360.56680	1163.59277	1712.02148	388.21811	1034.01831	1677.21985	371.63596	896.05103	1714.98462	411.63541	911.91443	1710.21216	417.35889	843.52875	1251.33777	249.50432	1489.01025	1151.90710	248.34039	1306.41846	1118.86401	197.23872	1167.32739	1117.52869	113.95680	1075.46643	1157.82507	16.59663	990.68896	1119.15332	48.71971	963.38647	1128.26477	-15.74477	931.30133	1553.84021	139.14549	979.65503	1299.60669	171.68808	960.16382	1496.72620	354.97760	1028.10718	1384.60974	373.35983	1027.14246	1640.37097	145.38974	681.78503	1616.57629	104.91260	487.91180	1621.56274	97.91678	293.93039	1611.89587	10.97347	82.59913	1556.01343	23.80177	45.53591	1648.16431	-140.78560	95.13777	1270.38452	300.05313	657.92279	1328.49243	342.12540	454.28708	1334.10388	423.31705	283.61282	1387.56580	477.79660	100.01048	1447.43457	518.28253	50.67274	1366.72900	334.21048	37.20618	1393.82190	211.95082	1797.99011	-3356.85767	2845.82056	1034.18298 
67	0.660	1473.49011	94.21679	1720.07776	1333.01355	117.48232	1696.59106	1503.75098	230.55600	1664.06824	1365.83679	266.03140	1641.08911	1434.67065	309.68018	1517.76990	1434.03247	360.42490	1238.52979	1447.17603	172.34941	1447.31091	1432.95874	118.51383	1276.99133	1368.99377	367.49533	1340.43286	1614.38965	247.87912	1486.76733	1688.53284	312.64276	1297.01978	1696.84509	351.36624	1162.40747	1711.36414	383.23871	1034.35327	1676.63025	371.55573	895.47614	1714.26343	410.39209	912.71680	1709.19971	419.50128	844.76740	1252.32166	237.13618	1486.42395	1152.06641	234.64972	1304.23682	1118.94385	182.35770	1165.75842	1118.00134	97.46100	1076.09985	1158.86438	-2.38073	994.39783	1120.30420	28.56852	966.00153	1129.62634	-36.76708	935.94507	1554.50903	124.73372	976.68042	1299.95874	159.87949	958.50861	1499.55725	342.44687	1025.57739	1388.33948	361.05307	1024.24219	1642.47937	133.50571	679.37793	1617.57642	90.38355	485.17816	1623.42517	76.75926	292.01126	1614.01489	-18.44559	83.96671	1558.15308	-6.57699	45.89452	1647.22632	-170.84364	101.47489	1271.15625	293.00513	657.35565	1329.21228	336.81482	453.96436	1335.40796	420.72424	284.43851	1388.52563	477.45703	101.45743	1448.68738	517.36591	52.15186	1366.50403	334.11404	37.14217	1394.84363	198.76878	1795.62402	-3360.45215	2845.26782	1034.11987 
